<?xml version="1.0" standalone="no"?>
<!DOCTYPE svg PUBLIC "-//W3C//DTD SVG 20010904//EN"
 "http://www.w3.org/TR/2001/REC-SVG-20010904/DTD/svg10.dtd">
<svg version="1.0" xmlns="http://www.w3.org/2000/svg"
 width="453.000000pt" height="340.000000pt" viewBox="0 0 453.000000 340.000000"
 preserveAspectRatio="xMidYMid meet">

<g transform="translate(0.000000,340.000000) scale(0.100000,-0.100000)"
fill="#000000" stroke="none">
<path d="M0 1700 l0 -1700 2265 0 2265 0 0 1700 0 1700 -2265 0 -2265 0 0
-1700z m3564 650 c118 -30 209 -82 302 -175 141 -139 199 -278 199 -475 0
-197 -58 -335 -199 -476 -143 -142 -301 -202 -505 -191 -176 8 -323 75 -446
202 -72 73 -117 147 -152 247 -22 60 -27 96 -31 201 l-4 127 51 0 c34 0 51 -4
51 -12 0 -32 63 -142 105 -183 25 -26 76 -61 113 -78 60 -28 77 -32 157 -32
116 1 184 26 263 100 171 158 171 412 0 570 -39 36 -78 61 -118 76 l-60 22 0
42 c0 23 3 45 7 48 15 15 192 7 267 -13z"/>
<path d="M3562 2213 c174 -188 168 -481 -15 -663 -94 -94 -205 -140 -337 -140
-127 0 -235 42 -330 127 -30 26 -51 41 -48 33 3 -8 13 -38 22 -67 50 -153 192
-292 355 -349 321 -111 674 84 752 416 44 190 -15 393 -154 535 -74 74 -181
137 -257 152 l-35 6 47 -50z"/>
</g>
</svg>
