<?xml version="1.0" standalone="no"?>
<!DOCTYPE svg PUBLIC "-//W3C//DTD SVG 20010904//EN"
 "http://www.w3.org/TR/2001/REC-SVG-20010904/DTD/svg10.dtd">
<svg version="1.0" xmlns="http://www.w3.org/2000/svg"
 width="225.000000pt" height="225.000000pt" viewBox="0 0 225.000000 225.000000"
 preserveAspectRatio="xMidYMid meet">

<g transform="translate(0.000000,225.000000) scale(0.100000,-0.100000)"
fill="#000000" stroke="none">
<path d="M1057 2093 c-2 -5 -12 -32 -22 -61 -24 -75 -34 -82 -118 -82 l-72 -1
35 -27 c19 -15 47 -39 64 -53 l29 -25 -16 -70 c-8 -38 -14 -71 -12 -73 2 -2
31 16 64 39 l61 43 65 -41 c36 -23 65 -37 65 -33 0 5 -9 39 -20 75 l-21 66 33
28 c18 15 46 39 63 54 l30 27 -81 1 -81 0 -28 70 c-29 72 -31 75 -38 63z"/>
<path d="M571 2044 c-174 -47 -320 -194 -366 -369 -72 -279 110 -570 392 -630
105 -23 111 -20 54 25 -136 108 -231 303 -231 474 1 166 62 309 185 434 81 81
82 82 51 81 -17 0 -55 -7 -85 -15z"/>
<path d="M1057 1192 l-727 -727 68 -68 67 -67 728 728 727 727 -68 68 -67 67
-728 -728z"/>
<path d="M766 1622 c-20 -58 -19 -57 -91 -67 l-50 -7 23 -19 c13 -10 34 -26
48 -36 23 -18 24 -19 9 -73 -8 -30 -13 -55 -12 -57 2 -1 24 12 51 29 43 28 50
30 69 18 12 -7 37 -22 54 -33 l33 -19 -21 59 -20 58 48 42 48 43 -61 0 -61 0
-25 58 -24 57 -18 -53z"/>
<path d="M1799 1293 c54 -137 85 -203 92 -196 4 4 48 55 98 113 59 69 86 107
78 111 -7 4 -74 10 -150 14 l-138 7 20 -49z"/>
<path d="M1320 925 c-341 -342 -354 -357 -335 -372 57 -44 188 -83 280 -83
137 0 259 52 361 154 132 132 183 308 139 481 -17 65 -64 166 -80 172 -6 2
-170 -157 -365 -352z"/>
<path d="M1831 753 c-29 -69 -51 -126 -49 -128 2 -2 53 1 113 5 61 5 127 9
148 9 21 1 37 5 35 10 -1 4 -46 58 -99 119 l-97 111 -51 -126z"/>
<path d="M916 323 c6 -82 12 -149 13 -151 0 -2 42 32 92 75 50 43 102 87 116
99 l26 20 -124 52 c-68 29 -126 52 -129 52 -3 0 0 -66 6 -147z"/>
<path d="M1491 418 c-96 -40 -120 -54 -109 -62 8 -6 59 -50 115 -99 55 -48
103 -87 106 -87 2 0 8 60 12 132 3 73 9 141 11 151 3 9 2 17 -3 17 -4 -1 -64
-24 -132 -52z"/>
</g>
</svg>
